<?xml version="1.0" encoding="UTF-8"?>
<svg xmlns="http://www.w3.org/2000/svg" viewBox="0 0 1024 1024">
  <rect width="1024" height="1024" fill="#ffffff"/>
  <g transform="matrix(8 0 0 8 71.6 793.6)" fill="#262626">
    <path d="M22.2168-2.00195L87.8906-2.00195C96.2402-2.00195 100.342-6.10352 100.342-14.3066L100.342-37.4023C100.342-41.2109 99.8535-43.0664 97.998-45.3613L85.4492-60.6445C80.6152-66.5527 78.6621-68.4082 71.4355-68.4082L38.6719-68.4082C31.4941-68.4082 29.4922-66.5527 24.6582-60.6445L12.1582-45.3613C10.3027-43.0664 9.76562-41.2109 9.76562-37.4023L9.76562-14.3066C9.76562-6.10352 13.916-2.00195 22.2168-2.00195ZM18.8965-39.7949C17.4805-39.7949 17.1875-41.0156 17.9199-41.9434L31.4941-58.9355C33.3984-61.3281 35.5469-62.2559 38.2324-62.2559L71.875-62.2559C74.5605-62.2559 76.7578-61.3281 78.6621-58.9355L92.2363-41.9434C92.9199-41.0156 92.627-39.7949 91.2598-39.7949L66.748-39.7949C64.5996-39.7949 63.5254-38.0859 63.5254-36.377L63.5254-36.2793C63.5254-32.2266 60.3516-27.5391 55.0781-27.5391C49.8047-27.5391 46.582-32.2266 46.582-36.2793L46.582-36.377C46.582-38.0859 45.5566-39.7949 43.3594-39.7949ZM22.3145-9.08203C18.7988-9.08203 16.7969-10.9863 16.7969-14.6484L16.7969-33.3984L39.9902-33.3984C41.1133-26.3672 47.168-21.0938 55.0781-21.0938C62.9883-21.0938 68.9941-26.416 70.1172-33.3984L93.3105-33.3984L93.3105-14.6484C93.3105-10.9863 91.3086-9.08203 87.793-9.08203Z"/>
  </g>
</svg>
